<?xml version="1.0" standalone="no"?>
<!DOCTYPE svg PUBLIC "-//W3C//DTD SVG 20010904//EN"
 "http://www.w3.org/TR/2001/REC-SVG-20010904/DTD/svg10.dtd">
<svg version="1.0" xmlns="http://www.w3.org/2000/svg"
 width="500.000000pt" height="500.000000pt" viewBox="0 0 500.000000 500.000000"
 preserveAspectRatio="xMidYMid meet">
<metadata>
Created by potrace 1.14, written by Peter Selinger 2001-2017
</metadata>
<g transform="translate(0.000000,500.000000) scale(0.100000,-0.100000)"
fill="#000000" stroke="none">
<path d="M2385 4423 c-80 -5 -276 -38 -374 -63 -347 -88 -607 -231 -881 -483
-185 -171 -305 -330 -405 -540 -109 -228 -161 -418 -171 -622 -7 -137 5 -148
29 -25 l15 75 1 -109 c1 -60 3 -107 6 -104 3 3 16 79 30 169 13 90 33 194 43
232 11 37 16 67 11 67 -15 0 52 173 112 290 80 153 114 195 44 53 -30 -62 -55
-117 -55 -122 0 -4 -18 -57 -41 -116 -53 -142 -77 -244 -104 -445 -7 -49 -15
-182 -9 -145 3 17 11 44 19 60 7 17 21 73 30 125 19 110 50 239 61 248 4 4 4
-5 0 -20 -7 -32 10 -47 19 -17 12 37 24 1 18 -52 -8 -72 12 -69 37 5 12 36 24
66 28 68 4 2 27 44 50 93 60 124 118 216 225 353 99 129 217 265 224 258 2 -2
-12 -25 -31 -51 -20 -25 -36 -51 -36 -57 0 -13 9 -6 157 114 223 180 387 274
598 341 183 58 283 72 505 71 161 0 213 -4 297 -22 510 -110 924 -431 1143
-887 123 -257 178 -551 152 -823 -15 -161 -33 -247 -83 -397 -175 -520 -608
-929 -1130 -1069 -213 -57 -522 -77 -712 -47 -43 7 -81 11 -83 8 -8 -8 119
-27 244 -38 144 -13 332 2 491 37 354 79 642 246 900 520 84 89 84 89 44 29
-22 -33 -85 -103 -139 -155 -181 -175 -362 -287 -579 -359 -207 -69 -363 -91
-645 -94 -145 -2 -158 -3 -105 -12 33 -5 130 -9 215 -9 125 1 145 -1 100 -8
-30 -5 -145 -7 -255 -5 -158 4 -218 9 -285 26 -210 53 -387 128 -548 234 -225
148 -355 276 -545 537 -37 51 -2 -8 57 -95 37 -55 113 -143 196 -227 143 -144
156 -168 25 -46 -156 145 -271 299 -377 503 -37 72 -68 127 -68 124 0 -4 7
-26 15 -50 9 -24 13 -49 10 -57 -2 -7 -1 -11 4 -8 4 3 38 -46 75 -108 130
-218 276 -385 461 -528 156 -122 365 -235 527 -287 88 -28 140 -39 383 -85
l80 -15 -85 5 c-155 9 -398 75 -585 159 -168 75 -366 216 -516 366 -49 49 -94
90 -99 90 -20 3 -25 5 -40 14 -28 17 108 -130 172 -186 375 -330 749 -488
1203 -506 472 -19 937 151 1323 485 34 29 62 49 62 44 0 -5 -38 -42 -85 -83
-47 -40 -85 -74 -85 -76 0 -14 138 108 217 191 180 190 299 372 394 607 60
146 113 346 128 479 22 200 32 361 26 417 -21 183 -68 376 -125 513 -17 41
-38 95 -47 120 -8 25 -31 77 -50 115 -165 329 -424 597 -729 752 -261 133
-483 208 -697 238 -114 15 -310 24 -402 18z m-555 -145 c-329 -144 -545 -288
-726 -482 -42 -44 -71 -70 -64 -56 21 39 176 189 268 259 144 109 324 212 467
267 61 23 101 32 55 12z m-250 -172 c0 -2 -34 -25 -76 -51 -107 -67 -211 -151
-344 -279 -87 -84 -102 -96 -62 -49 96 112 244 238 386 327 88 56 96 60 96 52z
m-733 -1128 c-3 -8 -6 -5 -6 6 -1 11 2 17 5 13 3 -3 4 -12 1 -19z m3580 -370
c-2 -13 -4 -5 -4 17 -1 22 1 32 4 23 2 -10 2 -28 0 -40z"/>
<path d="M2470 3295 c-1 -73 -30 -151 -48 -133 -7 7 -12 20 -12 30 0 10 -5 17
-12 16 -6 -2 -20 13 -29 32 -17 33 -18 33 -19 9 0 -14 7 -34 15 -45 25 -33 14
-191 -15 -209 -5 -3 -14 14 -21 37 -10 40 -12 41 -23 20 -11 -21 -12 -21 -24
-2 -7 11 -17 20 -22 20 -15 0 5 -34 47 -81 l35 -38 -32 -96 c-17 -52 -36 -97
-41 -101 -17 -10 -31 50 -36 161 -7 131 7 223 47 315 37 86 44 110 31 110 -6
0 -14 -12 -17 -27 -8 -31 -42 -103 -49 -103 -3 0 -16 23 -31 51 -30 61 -42 60
-17 -2 14 -34 18 -70 17 -157 -1 -62 -6 -118 -11 -123 -9 -9 -39 21 -75 75 -4
6 -10 7 -14 3 -4 -3 -1 -13 6 -22 22 -26 5 -26 -30 0 -18 14 -36 23 -38 20 -3
-3 -3 -7 -1 -8 2 -2 30 -23 61 -46 91 -66 89 -60 101 -316 5 -124 7 -228 4
-232 -4 -3 -16 2 -28 13 -35 31 -139 172 -155 209 -8 19 -21 114 -29 211 -23
273 -35 353 -51 347 -19 -7 -17 -46 6 -131 11 -39 20 -79 20 -88 0 -25 -25 -1
-41 39 -19 48 -81 159 -86 153 -2 -2 5 -22 16 -45 26 -50 26 -54 2 -41 -38 20
-35 9 7 -30 56 -52 92 -129 92 -197 0 -57 -8 -65 -28 -32 -27 43 -22 9 7 -50
33 -65 37 -86 20 -96 -19 -12 -107 89 -119 137 -6 24 -22 74 -36 111 -13 38
-24 78 -24 91 0 12 -7 31 -15 42 -14 18 -15 16 -9 -21 l7 -40 -30 28 c-47 43
-51 31 -6 -15 41 -42 73 -101 73 -133 0 -12 -11 -7 -42 19 -62 53 -59 34 5
-33 64 -67 72 -91 30 -91 -68 1 -140 57 -184 141 -24 48 -31 50 -18 7 5 -18 9
-34 9 -36 0 -2 -17 6 -37 18 l-38 21 30 -25 c76 -65 173 -128 212 -139 24 -6
43 -14 43 -18 0 -14 -73 -31 -111 -26 -22 3 -37 2 -34 -3 9 -15 68 -20 107 -8
32 9 44 9 74 -5 74 -36 174 -123 174 -152 0 -3 -35 -6 -77 -6 -52 -1 -68 -4
-48 -8 l30 -7 -23 -13 c-37 -20 -18 -24 32 -7 82 28 89 25 184 -75 119 -125
146 -169 105 -169 -27 0 -140 56 -195 96 -58 43 -65 29 -8 -16 44 -35 49 -48
23 -56 -53 -17 -49 -20 23 -20 116 1 175 -27 215 -103 23 -42 29 -49 24 -26
-5 26 -4 27 6 11 7 -11 14 -36 16 -55 2 -20 4 -45 6 -56 8 -69 -249 59 -336
167 -16 20 -42 72 -58 115 -30 84 -39 88 -14 7 8 -27 15 -57 15 -67 0 -17 -3
-16 -41 5 -32 18 -59 50 -116 135 -40 62 -90 125 -111 140 -65 49 -112 103
-112 128 0 13 -5 27 -11 31 -9 5 -10 -7 -5 -43 l6 -50 -52 3 -53 3 45 -10
c132 -31 190 -74 262 -195 51 -87 66 -124 48 -124 -16 0 -171 80 -206 106 -17
14 -51 52 -75 87 -32 46 -45 57 -47 44 -4 -19 -11 -19 -69 -2 -10 3 10 -8 45
-25 68 -35 93 -63 64 -75 -9 -4 -42 -11 -72 -16 -50 -7 -48 -8 22 -4 77 5 77
4 155 -41 43 -26 80 -48 83 -51 11 -10 -27 -21 -98 -27 -42 -3 -81 -11 -87
-17 -7 -8 7 -8 50 -2 144 20 281 2 362 -48 41 -25 31 -38 -32 -40 -35 -1 -33
-2 16 -9 54 -7 95 -27 147 -73 37 -34 27 -40 -60 -35 -100 5 -137 21 -218 94
-81 72 -89 69 -15 -6 32 -33 56 -63 52 -66 -11 -11 -121 23 -189 57 -62 32
-88 34 -42 5 14 -10 24 -20 21 -22 -5 -6 -139 42 -190 68 -51 26 -58 17 -10
-12 l38 -22 -30 -14 c-30 -14 -30 -14 16 -9 64 8 229 -32 229 -55 0 -5 -39
-13 -87 -20 -49 -7 -97 -17 -108 -22 -14 -6 -8 -7 20 -3 22 3 67 8 99 12 64 7
61 10 40 -42 -10 -25 13 -17 35 13 12 15 25 32 29 38 9 10 185 -6 197 -18 7
-7 -127 -68 -149 -68 -26 0 -86 -28 -86 -40 0 -7 10 -5 28 4 15 7 55 21 90 30
34 8 73 23 86 31 32 21 201 39 283 30 77 -8 216 -75 248 -118 25 -36 34 -187
13 -227 -27 -50 -99 -63 -113 -19 -8 24 -29 20 -34 -7 -4 -24 -19 -34 -53 -34
-16 0 -28 -5 -28 -11 0 -8 12 -9 38 -5 20 4 68 9 106 13 62 6 70 9 88 37 16
27 19 46 16 136 -4 130 -17 156 -97 192 l-56 26 37 1 c32 1 39 5 44 28 l7 26
29 -31 c15 -18 28 -39 28 -47 0 -23 17 -18 24 8 3 12 6 42 7 67 0 25 4 56 8
70 5 19 9 7 14 -45 4 -38 7 -88 7 -111 0 -48 6 -57 31 -43 24 12 24 2 2 -23
-9 -10 -17 -37 -18 -58 0 -22 -4 -42 -8 -46 -11 -11 -8 -36 3 -29 6 4 10 -12
10 -42 0 -56 6 -68 40 -76 14 -3 70 -20 125 -36 112 -34 151 -39 88 -11 -24
11 -43 26 -43 35 0 17 -25 21 -35 5 -4 -6 -12 -7 -18 -3 -7 4 -30 10 -52 13
-53 7 -65 32 -65 141 0 80 2 89 30 127 48 66 99 77 350 74 209 -2 258 -7 368
-36 34 -10 70 -16 80 -13 12 3 8 6 -13 11 -16 5 -47 12 -67 17 -44 11 -48 21
-13 37 20 9 48 9 125 -3 107 -16 126 -18 119 -10 -3 2 -40 10 -82 16 -42 6
-74 15 -72 19 3 5 34 24 68 44 80 44 191 125 183 133 -3 4 -25 -7 -49 -24 -51
-37 -147 -86 -147 -76 0 5 16 28 35 52 19 24 35 46 35 49 0 3 -33 -26 -73 -65
-76 -74 -121 -96 -227 -110 l-45 -6 40 42 c21 22 34 41 29 41 -6 0 -21 -12
-35 -26 -13 -15 -38 -33 -56 -40 -33 -14 -125 -17 -176 -5 l-29 6 64 51 c34
28 80 63 100 77 36 24 213 84 308 105 43 9 44 10 11 11 l-34 1 57 45 c31 24
67 47 79 51 12 4 33 17 47 30 14 13 36 32 50 43 51 41 1 19 -54 -24 -32 -25
-62 -45 -67 -45 -14 0 -10 34 7 58 9 13 14 26 11 29 -3 3 -18 -15 -32 -39 -50
-79 -94 -116 -178 -149 -44 -16 -81 -29 -83 -27 -2 2 8 28 22 57 13 30 29 74
36 98 7 28 28 63 57 96 79 89 88 104 25 45 -33 -32 -63 -58 -67 -58 -11 0 1
42 50 173 24 66 42 124 40 130 -2 7 -12 -13 -22 -43 -10 -30 -27 -73 -39 -95
l-21 -40 -3 68 c-5 112 -22 66 -22 -59 0 -138 -18 -227 -63 -306 -29 -52 -46
-67 -172 -152 -121 -82 -140 -92 -143 -75 -6 36 23 66 75 77 48 10 48 10 11
11 -21 0 -38 5 -38 9 0 4 21 25 46 46 25 21 43 41 40 44 -4 3 -16 -4 -29 -16
-33 -31 -39 -28 -32 16 5 27 4 33 -4 22 -6 -8 -11 -27 -11 -41 0 -15 -8 -37
-19 -50 -10 -13 -32 -52 -50 -86 -17 -34 -39 -67 -49 -72 -11 -6 -49 -13 -85
-17 -36 -4 -96 -19 -134 -34 -37 -15 -70 -26 -72 -24 -2 2 14 23 35 46 50 55
96 121 123 179 12 25 43 73 69 105 37 47 63 67 124 98 77 39 110 45 158 32 24
-7 24 -7 6 8 -11 9 -30 16 -44 16 -35 0 -18 16 33 30 25 7 48 17 51 22 10 16
-50 -3 -131 -42 -86 -42 -135 -57 -135 -44 0 17 118 147 181 201 35 30 88 68
116 85 63 36 78 53 28 33 -19 -9 -35 -13 -35 -10 0 22 58 128 88 158 20 20 31
37 26 37 -6 0 -21 -11 -34 -25 -30 -32 -42 -32 -40 3 3 41 1 49 -10 32 -5 -8
-10 -35 -10 -59 0 -64 -33 -123 -103 -186 -65 -59 -77 -65 -77 -37 0 30 40
162 56 188 17 25 7 33 -14 12 -16 -16 -16 -18 18 125 33 140 34 147 20 147 -5
0 -10 -10 -10 -22 0 -33 -31 -138 -41 -138 -5 0 -9 20 -9 44 0 25 -4 47 -9 50
-4 3 -8 -56 -7 -132 1 -102 -4 -158 -18 -217 -22 -97 -36 -125 -94 -194 -25
-29 -65 -83 -89 -119 l-43 -66 0 55 c0 30 8 85 19 122 21 76 15 88 -13 24
l-18 -42 -13 30 c-11 25 -12 11 -8 -100 6 -149 2 -164 -88 -287 -48 -64 -70
-83 -83 -71 -12 12 -5 199 9 261 22 91 54 146 144 247 128 142 146 174 175
300 14 61 30 149 36 197 6 48 13 95 16 103 4 8 1 15 -5 15 -6 0 -11 -5 -11
-11 0 -6 -9 -9 -20 -6 -21 5 -29 -16 -10 -28 30 -18 -12 -281 -61 -378 -22
-44 -57 -87 -71 -87 -14 0 -8 34 12 68 15 24 16 32 6 32 -9 0 -15 22 -20 75
-4 42 -4 80 0 86 3 6 3 27 -1 47 -8 35 -8 36 -15 12 -5 -14 -8 -60 -9 -102 -1
-68 -5 -82 -33 -129 -25 -40 -45 -58 -83 -75 -60 -28 -62 -25 -66 74 -3 68 -2
73 27 104 41 44 88 108 79 108 -3 0 -30 -25 -58 -56 -59 -64 -65 -61 -66 38
l-1 57 53 19 c28 11 63 23 77 27 36 11 83 36 77 41 -2 3 -21 -3 -41 -12 -47
-23 -55 -13 -22 27 15 17 24 34 21 38 -6 6 -18 -7 -58 -63 -19 -27 -85 -53
-111 -43 -18 7 -21 39 -6 67 5 10 46 43 90 74 44 31 80 59 80 63 0 4 -5 2 -12
-5 -19 -19 -28 -14 -28 16 -1 25 -3 24 -23 -17 -21 -42 -69 -82 -82 -69 -4 4
3 28 14 53 26 59 26 63 1 40 -19 -17 -20 -17 -29 6 -8 20 -10 13 -11 -36z
m-47 -187 c16 -70 39 -239 33 -246 -12 -12 -86 75 -86 101 0 14 7 44 15 67 8
23 15 55 15 71 0 34 16 39 23 7z m-24 -236 c53 -73 63 -107 69 -233 5 -129 -2
-189 -22 -189 -23 0 -115 109 -127 151 -10 33 -10 49 4 93 9 29 17 66 16 82 0
25 -3 22 -15 -18 -13 -44 -34 -73 -34 -48 0 22 61 210 68 209 4 0 22 -21 41
-47z m89 -137 l-1 -40 -8 45 c-4 25 -7 56 -7 70 0 23 1 22 8 -5 4 -16 8 -48 8
-70z m187 76 c-3 -6 -11 -11 -17 -11 -6 0 -6 6 2 15 14 17 26 13 15 -4z m2
-72 c-3 -22 -17 -57 -31 -77 -42 -59 -114 -138 -120 -131 -13 12 -8 139 5 156
16 19 129 93 143 93 5 0 6 -18 3 -41z m-417 -15 c0 -8 -5 -12 -10 -9 -6 4 -8
11 -5 16 9 14 15 11 15 -7z m31 -96 c13 -49 32 -79 106 -164 l53 -61 0 -89 c0
-94 -16 -213 -29 -227 -11 -11 -102 166 -131 253 -30 90 -41 330 -15 330 2 0
9 -19 16 -42z m206 -50 c-3 -7 -5 -2 -5 12 0 14 2 19 5 13 2 -7 2 -19 0 -25z
m335 -50 c-7 -7 -12 -8 -12 -2 0 14 12 26 19 19 2 -3 -1 -11 -7 -17z m-312
-43 c5 3 10 1 10 -4 0 -6 -9 -11 -20 -11 -15 0 -20 6 -19 28 0 26 0 27 10 4 5
-13 13 -20 19 -17z m-278 -89 c9 -17 58 -155 58 -163 0 -2 -4 -2 -9 1 -5 3
-19 38 -31 78 -18 60 -30 79 -73 121 l-52 49 48 -33 c27 -19 53 -42 59 -53z
m506 -14 c-19 -26 -38 -56 -42 -67 -5 -12 -10 -15 -13 -8 -2 6 15 42 38 79 24
37 45 62 47 56 2 -7 -12 -34 -30 -60z m-271 -85 c-2 -23 -3 -1 -3 48 0 50 1
68 3 42 2 -26 2 -67 0 -90z m-452 -107 c10 -11 16 -20 13 -20 -3 0 -13 9 -23
20 -10 11 -16 20 -13 20 3 0 13 -9 23 -20z m556 -58 c-34 -44 -61 -68 -61 -56
0 8 80 94 88 94 2 0 -10 -17 -27 -38z m398 21 c-18 -21 -114 -83 -131 -83 -18
0 -1 14 72 59 74 46 77 47 59 24z m-820 -57 c19 -14 28 -26 20 -26 -8 0 -32
16 -54 36 -43 38 -22 32 34 -10z m584 -33 c-13 -2 -33 -2 -45 0 -13 2 -3 4 22
4 25 0 35 -2 23 -4z m172 -3 c3 -5 1 -10 -4 -10 -6 0 -11 5 -11 10 0 6 2 10 4
10 3 0 8 -4 11 -10z m262 -16 c-3 -3 -12 -4 -19 -1 -8 3 -5 6 6 6 11 1 17 -2
13 -5z"/>
<path d="M4433 2355 c0 -33 2 -45 4 -27 2 18 2 45 0 60 -2 15 -4 0 -4 -33z"/>
<path d="M601 2284 c-2 -85 50 -314 106 -464 230 -618 756 -1067 1413 -1205
102 -22 161 -28 320 -32 107 -2 227 0 265 4 51 7 18 8 -125 5 -361 -8 -621 48
-918 197 -238 119 -410 250 -579 441 -250 282 -414 632 -467 1000 -9 62 -14
81 -15 54z"/>
<path d="M4422 2240 c0 -19 2 -27 5 -17 2 9 2 25 0 35 -3 9 -5 1 -5 -18z"/>
<path d="M4412 2165 c0 -16 2 -22 5 -12 2 9 2 23 0 30 -3 6 -5 -1 -5 -18z"/>
<path d="M4402 2110 c0 -14 2 -19 5 -12 2 6 2 18 0 25 -3 6 -5 1 -5 -13z"/>
<path d="M4381 2014 c0 -11 3 -14 6 -6 3 7 2 16 -1 19 -3 4 -6 -2 -5 -13z"/>
<path d="M1060 1370 c12 -16 24 -30 26 -30 3 0 -4 14 -16 30 -12 17 -24 30
-26 30 -3 0 4 -13 16 -30z"/>
<path d="M1030 1346 c0 -2 8 -10 18 -17 15 -13 16 -12 3 4 -13 16 -21 21 -21
13z"/>
<path d="M1100 1316 c0 -2 8 -10 18 -17 15 -13 16 -12 3 4 -13 16 -21 21 -21
13z"/>
<path d="M1390 1166 c0 -2 8 -10 18 -17 15 -13 16 -12 3 4 -13 16 -21 21 -21
13z"/>
<path d="M1430 1136 c0 -2 8 -10 18 -17 15 -13 16 -12 3 4 -13 16 -21 21 -21
13z"/>
<path d="M1495 1085 c17 -14 29 -30 27 -36 -1 -6 2 -8 8 -4 6 4 26 -3 45 -15
65 -40 35 -13 -37 34 -40 26 -59 35 -43 21z"/>
<path d="M1620 1006 c0 -3 14 -12 30 -21 17 -9 30 -13 30 -11 0 3 -13 12 -30
21 -16 9 -30 13 -30 11z"/>
<path d="M3639 953 c-13 -16 -12 -17 4 -4 16 13 21 21 13 21 -2 0 -10 -8 -17
-17z"/>
<path d="M3582 916 c-46 -33 -53 -43 -14 -20 19 10 38 25 44 32 15 17 8 14
-30 -12z"/>
<path d="M1800 910 c8 -5 20 -10 25 -10 6 0 3 5 -5 10 -8 5 -19 10 -25 10 -5
0 -3 -5 5 -10z"/>
<path d="M1900 870 c8 -5 20 -10 25 -10 6 0 3 5 -5 10 -8 5 -19 10 -25 10 -5
0 -3 -5 5 -10z"/>
<path d="M3440 830 c-47 -28 -131 -69 -187 -92 -56 -23 -101 -43 -99 -45 12
-12 298 123 356 167 39 30 22 23 -70 -30z"/>
<path d="M2008 863 c7 -3 16 -2 19 1 4 3 -2 6 -13 5 -11 0 -14 -3 -6 -6z"/>
<path d="M2055 850 c11 -5 29 -8 40 -8 16 0 15 2 -5 8 -34 11 -60 11 -35 0z"/>
<path d="M2078 813 c7 -3 16 -2 19 1 4 3 -2 6 -13 5 -11 0 -14 -3 -6 -6z"/>
<path d="M2118 803 c6 -2 18 -2 25 0 6 3 1 5 -13 5 -14 0 -19 -2 -12 -5z"/>
<path d="M2168 793 c6 -2 18 -2 25 0 6 3 1 5 -13 5 -14 0 -19 -2 -12 -5z"/>
<path d="M2233 783 c9 -2 23 -2 30 0 6 3 -1 5 -18 5 -16 0 -22 -2 -12 -5z"/>
<path d="M3028 653 c7 -3 16 -2 19 1 4 3 -2 6 -13 5 -11 0 -14 -3 -6 -6z"/>
<path d="M2960 640 c-20 -6 -21 -8 -5 -8 11 0 29 3 40 8 25 11 -1 11 -35 0z"/>
<path d="M2835 615 c-36 -8 -48 -13 -30 -13 17 0 53 6 80 13 64 16 28 16 -50
0z"/>
</g>
</svg>
